HIERARCHY
ROOT Hips
{
	OFFSET 0.00000 0.00000 0.00000
	CHANNELS 6 Xposition Yposition Zposition Zrotation Yrotation Xrotation 
	JOINT LHipJoint
	{
		OFFSET 0 0 0
		CHANNELS 3 Zrotation Yrotation Xrotation
		JOINT LeftHip
		{
			OFFSET 1.65674 -1.80282 0.62477
			CHANNELS 3 Zrotation Yrotation Xrotation
			JOINT LeftKnee
			{
				OFFSET 2.59720 -7.13576 0.00000
				CHANNELS 3 Zrotation Yrotation Xrotation
				JOINT LeftAnkle
				{
					OFFSET 2.49236 -6.84770 0.00000
					CHANNELS 3 Zrotation Yrotation Xrotation
					JOINT LeftToe
					{
						OFFSET 0.19704 -0.54136 2.14581
						CHANNELS 3 Zrotation Yrotation Xrotation
						End Site
						{
							OFFSET 0.00000 -0.00000 1.11249
						}
					}
				}
			}
		}
	}
	JOINT RHipJoint
	{
		OFFSET 0 0 0
		CHANNELS 3 Zrotation Yrotation Xrotation
		JOINT RightHip
		{
			OFFSET -1.61070 -1.80282 0.62476
			CHANNELS 3 Zrotation Yrotation Xrotation
			JOINT RightKnee
			{
				OFFSET -2.59502 -7.12977 0.00000
				CHANNELS 3 Zrotation Yrotation Xrotation
				JOINT RightAnkle
				{
					OFFSET -2.46780 -6.78024 0.00000
					CHANNELS 3 Zrotation Yrotation Xrotation
					JOINT RightToe
					{
						OFFSET -0.23024 -0.63258 2.13368
						CHANNELS 3 Zrotation Yrotation Xrotation
						End Site
						{
							OFFSET -0.00000 -0.00000 1.11569
						}
					}
				}
			}
		}
	}
	JOINT lowerback
	{
		OFFSET 0 0 0
		CHANNELS 3 Zrotation Yrotation Xrotation
		JOINT Chest
		{
			OFFSET 0.01961 2.05450 -0.14112
			CHANNELS 3 Zrotation Yrotation Xrotation
			JOINT Chest2
			{
				OFFSET 0.01021 2.06436 -0.05921
				CHANNELS 3 Zrotation Yrotation Xrotation
				JOINT lowerneck
				{
					OFFSET 0 0 0
					CHANNELS 3 Zrotation Yrotation Xrotation
					JOINT Neck
					{
						OFFSET 0.00713 1.56711 0.14968
						CHANNELS 3 Zrotation Yrotation Xrotation
						JOINT Head
						{
							OFFSET 0.03429 1.56041 -0.10006
							CHANNELS 3 Zrotation Yrotation Xrotation
							End Site
							{
								OFFSET 0.01305 1.62560 -0.05265
							}
						}
					}
				}
				JOINT LeftCollar
				{
					OFFSET 0 0 0
					CHANNELS 3 Zrotation Yrotation Xrotation
					JOINT LeftShoulder
					{
						OFFSET 3.54205 0.90436 -0.17364
CHANNELS 3 Zrotation Xrotation Yrotation
						JOINT LeftElbow
						{
OFFSET 0 -4.865130 -0.000000
CHANNELS 3 Zrotation Xrotation Yrotation
							JOINT LeftWrist
							{
OFFSET 0 -3.355540 0.000000
CHANNELS 3 Zrotation Xrotation Yrotation
								JOINT lhand
								{
									OFFSET 0 0 0
CHANNELS 3 Zrotation Xrotation Yrotation
									JOINT LFingers
									{
OFFSET 0 -0.661170 0.000000
CHANNELS 3 Zrotation Xrotation Yrotation
										End Site
										{
OFFSET 0 -0.533060 0.000000
										}
									}
								}
								JOINT LThumb
								{
OFFSET 0 0.000000 0.000000
CHANNELS 3 Zrotation Xrotation Yrotation
									End Site
									{
OFFSET 0 -0.541200 0.541200
									}
								}
							}
						}
					}
				}
				JOINT RightCollar
				{
					OFFSET 0 0 0
					CHANNELS 3 Zrotation Yrotation Xrotation
					JOINT RightShoulder
					{
						OFFSET -3.49802 0.75994 -0.32616
CHANNELS 3 Zrotation Xrotation Yrotation
						JOINT RightElbow
						{
OFFSET 0 -5.026490 0.000000
CHANNELS 3 Zrotation Xrotation Yrotation
							JOINT RightWrist
							{
OFFSET 0 -3.364310 0.000000
CHANNELS 3 Zrotation Xrotation Yrotation
								JOINT rhand
								{
									OFFSET 0 0 0
CHANNELS 3 Zrotation Xrotation Yrotation
									JOINT RFingers
									{
OFFSET 0 -0.730410 0.000000
CHANNELS 3 Zrotation Xrotation Yrotation
										End Site
										{
OFFSET 0 -0.588870 0.000000
										}
									}
								}
								JOINT RThumb
								{
OFFSET 0 0.000000 0.000000
CHANNELS 3 Zrotation Xrotation Yrotation
									End Site
									{
OFFSET 0 -0.597860 0.597860
									}
								}
							}
						}
					}
				}
			}
		}
	}
}
MOTION
Frames: 6
Frame Time: 0.008333333333333333
9.932400 17.623200 -3.589100 4.501200 -20.794200 -9.399900 0.000000 0.000000 0.000000 -21.609100 -3.960300 -5.864400 0.617900 5.030700 13.996100 -0.805100 15.793600 -3.623300 0.189800 -2.805600 -7.738100 0.000000 0.000000 0.000000 16.891500 -5.706700 7.273800 -1.074900 -6.590300 18.507200 -0.948700 -12.537100 -26.832800 -0.008700 -0.601600 1.653200 0.764300 0.405100 1.008300 0.554600 0.533900 1.688000 0.139600 0.271200 1.164400 -1.782400 2.913600 -12.637700 0.714900 4.111500 4.708700 0.850100 2.028300 3.745100 -0.000000 -0.000000 0.000000 -7.897900 -33.360500 -53.333600 36.721700 -46.003100 16.039500 49.405600 -24.704800 -19.078600 0.000000 0.000000 0.000000 -7.125000 0.000000 0.000000 24.004900 56.310900 -6.938800 -0.000000 -0.000000 0.000000 6.353400 -28.942300 97.039600 -26.431500 -37.631700 -9.149900 -49.039900 -56.790900 -14.582500 0.000000 0.000000 0.000000 7.125000 0.000000 -0.000000 -13.935100 8.836400 -11.999200
9.908945 17.627003 -3.637748 2.084022 -21.127203 -8.059937 0.000000 0.000000 0.000000 -18.727852 -4.428835 -7.968685 0.871320 5.951427 16.643564 -0.753222 15.164599 -5.093846 0.153911 -2.498496 -6.886974 0.000000 0.000000 0.000000 19.871397 -5.176218 7.692736 -0.867677 -5.939334 16.608551 -0.739757 -13.679997 -26.349986 -0.023158 -0.981739 2.698533 3.027762 0.447468 0.658758 1.141261 0.583524 1.336892 -0.525586 0.313653 1.019573 -1.688561 3.061152 -12.169245 1.019673 4.262319 4.735254 0.934002 2.120267 3.655391 0.000000 0.000000 0.000000 -7.160985 -35.840450 -54.442822 38.178930 -46.952717 17.096414 50.370850 -24.412090 -18.786512 0.000000 0.000000 0.000000 -7.125000 0.000000 0.000000 25.161835 56.221514 -7.248304 0.000000 0.000000 0.000000 7.215387 -30.783918 95.754372 -26.533277 -37.730383 -9.212068 -48.440296 -53.869077 -14.062682 0.000000 0.000000 0.000000 7.125000 0.000000 0.000000 -13.691920 9.749592 -11.518748
9.896299 17.617722 -3.629150 3.343200 -20.910982 -9.116109 0.000000 0.000000 0.000000 -20.131248 -4.293401 -7.035636 0.836733 5.835259 16.307218 -0.771953 15.353327 -4.953575 0.165892 -2.624042 -7.233791 0.000000 0.000000 0.000000 18.383686 -5.703187 8.143594 -0.902168 -6.053072 16.938544 -0.784734 -13.281831 -26.297784 -0.012114 -0.708667 1.947520 1.941500 0.531582 1.009339 0.850050 0.711674 1.198745 -0.220392 0.365974 0.674569 0.465819 2.833018 -13.119040 -1.812598 3.881958 6.503054 -0.342316 1.812980 4.315764 0.000000 0.000000 0.000000 -6.629068 -38.368234 -55.494935 39.305216 -47.652257 17.924211 50.071624 -24.355918 -18.509884 0.000000 0.000000 0.000000 -7.125000 0.000000 0.000000 24.639342 55.771648 -6.804853 0.000000 0.000000 0.000000 7.731234 -32.847391 94.825870 -26.778324 -37.966945 -9.362394 -48.519234 -52.728424 -14.461314 0.000000 0.000000 0.000000 7.125000 0.000000 0.000000 -13.646779 9.177847 -11.638977
9.864645 17.615553 -3.660419 2.890368 -20.804968 -9.154814 0.000000 0.000000 0.000000 -19.543808 -4.456758 -6.752878 0.810945 5.746605 16.050980 -0.778761 15.443597 -4.559548 0.197335 -2.848444 -7.857891 0.000000 0.000000 0.000000 19.076369 -5.693170 8.042372 -0.945009 -6.191229 17.340239 -0.705849 -13.856667 -26.267593 -0.012255 -0.691277 1.899843 2.168139 0.546216 1.035487 1.046310 0.734693 1.070016 -0.147684 0.376400 0.528793 -1.248889 2.985062 -12.148448 0.479047 4.144016 5.872543 0.687712 2.037485 4.080501 0.000000 0.000000 0.000000 -5.491232 -41.717226 -56.903248 41.160248 -48.741948 19.307110 49.993039 -24.273272 -19.211054 0.000000 0.000000 0.000000 -7.125000 0.000000 0.000000 24.843857 56.656334 -7.415886 0.000000 0.000000 0.000000 8.277406 -35.594685 94.468884 -27.097868 -38.272333 -9.559707 -49.516403 -52.432916 -15.055904 0.000000 0.000000 0.000000 7.125000 0.000000 0.000000 -14.108823 8.016648 -12.394795
9.844572 17.610515 -3.657957 3.537322 -20.528293 -9.431573 0.000000 0.000000 0.000000 -20.280045 -4.575218 -6.090530 0.728012 5.451772 15.201658 -0.808796 15.756233 -4.294950 0.215888 -2.990453 -8.252270 0.000000 0.000000 0.000000 18.322691 -5.986426 7.741457 -1.013707 -6.405915 17.966769 -0.786709 -13.411868 -26.443246 -0.002175 -0.303117 0.832751 1.842430 0.703794 0.583405 0.775436 0.936182 0.903795 -0.238743 0.476238 0.614774 -1.742452 2.889851 -12.014232 1.164448 4.034522 6.305342 1.000108 2.004461 4.172818 0.000000 0.000000 0.000000 -4.769576 -44.780244 -58.429633 43.264069 -49.889153 20.902466 51.957613 -26.308296 -16.899209 0.000000 0.000000 0.000000 -7.125000 0.000000 0.000000 26.345717 54.212586 -6.298118 0.000000 0.000000 0.000000 8.617349 -38.687234 93.516593 -27.564648 -38.712313 -9.850182 -48.925073 -54.819564 -16.850568 0.000000 0.000000 0.000000 7.125000 0.000000 0.000000 -13.320841 5.782716 -12.254596
9.816950 17.602962 -3.661575 4.286415 -20.251452 -10.094808 0.000000 0.000000 0.000000 -21.042217 -4.411697 -5.639763 0.724488 5.438566 15.163867 -0.783972 15.548321 -3.943976 0.291898 -3.473432 -9.599904 0.000000 0.000000 0.000000 17.473744 -6.460924 8.210206 -1.002437 -6.371073 17.865031 -0.807919 -13.167234 -26.363995 -0.003256 -0.366719 1.007582 1.018924 0.696755 0.588510 0.573774 0.927649 0.859702 0.015431 0.467523 0.556485 -0.822514 3.004633 -12.823784 0.495137 4.116139 8.001828 0.591663 2.028249 4.453368 0.000000 0.000000 0.000000 -4.235149 -48.248123 -59.167008 44.520298 -50.530940 21.867918 51.084722 -25.487472 -17.427683 0.000000 0.000000 0.000000 -7.125000 0.000000 0.000000 25.478894 54.656172 -6.355044 0.000000 0.000000 0.000000 9.694711 -41.510354 92.700180 -28.203677 -39.302885 -10.252500 -50.298557 -53.979171 -17.406267 0.000000 0.000000 0.000000 7.125000 0.000000 0.000000 -13.993760 4.488482 -13.265941
